<?xml version="1.0" encoding="utf-8"?>
<!-- Generator: Adobe Illustrator 22.0.1, SVG Export Plug-In . SVG Version: 6.00 Build 0)  -->
<svg version="1.1" id="Layer_1" xmlns="http://www.w3.org/2000/svg" xmlns:xlink="http://www.w3.org/1999/xlink" x="0px" y="0px"
	 viewBox="0 0 260 541.389" style="enable-background:new 0 0 260 541.389;" xml:space="preserve">
<g>
	<rect x="-6.676" y="249.898" style="fill:#EFE7DC;" width="285.714" height="18.98"/>
	<rect x="22.462" y="464.371" style="fill:#EFE7DC;" width="237.538" height="2.75"/>
	<g>
		<g>
			<g>
				<line style="fill:none;stroke:#000000;stroke-miterlimit:10;" x1="46.216" y1="526.359" x2="46.216" y2="522.141"/>
				<line style="fill:none;stroke:#000000;stroke-miterlimit:10;" x1="93.723" y1="526.359" x2="93.723" y2="522.141"/>
				<line style="fill:none;stroke:#000000;stroke-miterlimit:10;" x1="141.231" y1="526.359" x2="141.231" y2="522.141"/>
				<line style="fill:none;stroke:#000000;stroke-miterlimit:10;" x1="188.739" y1="526.359" x2="188.739" y2="522.141"/>
				<line style="fill:none;stroke:#000000;stroke-miterlimit:10;" x1="236.246" y1="526.359" x2="236.246" y2="522.141"/>
			</g>
		</g>
	</g>
	<g>
		<g>
			<g style="display:none;">
				<text transform="matrix(1 0 0 1 1.3443 499.3199)" style="display:inline; font-family:'ArialMT'; font-size:13px;">0.5</text>
			</g>
			<g style="display:none;">
				<text transform="matrix(1 0 0 1 1.3443 471.2012)" style="display:inline; font-family:'ArialMT'; font-size:13px;">1.0</text>
			</g>
			<g style="display:none;">
				<text transform="matrix(1 0 0 1 1.3443 443.0826)" style="display:inline; font-family:'ArialMT'; font-size:13px;">1.5</text>
			</g>
			<g style="display:none;">
				<text transform="matrix(1 0 0 1 1.3443 414.9639)" style="display:inline; font-family:'ArialMT'; font-size:13px;">2.0</text>
			</g>
			<g style="display:none;">
				<text transform="matrix(1 0 0 1 1.3443 386.8452)" style="display:inline; font-family:'ArialMT'; font-size:13px;">2.5</text>
			</g>
			<g style="display:none;">
				<text transform="matrix(1 0 0 1 1.3443 358.7266)" style="display:inline; font-family:'ArialMT'; font-size:13px;">3.0</text>
			</g>
		</g>
		<path style="fill:#FFFFFF;stroke:#231F20;" d="M-66.599,353.396"/>
		<g>
			<g>
				<path style="fill:none;stroke:#EEEEEE;stroke-width:0.5;stroke-miterlimit:10;" d="M266.659,522.109"/>
				<line style="fill:#FFFFFF;stroke:#231F20;" x1="0" y1="522.109" x2="260" y2="522.109"/>
				<line style="fill:none;stroke:#EEEEEE;stroke-width:0.5;stroke-miterlimit:10;" x1="22.462" y1="493.99" x2="260" y2="493.99"/>
				
					<line style="fill:none;stroke:#EEEEEE;stroke-width:0.5;stroke-miterlimit:10;" x1="22.462" y1="465.871" x2="260" y2="465.871"/>
				
					<line style="fill:none;stroke:#EEEEEE;stroke-width:0.5;stroke-miterlimit:10;" x1="22.462" y1="437.752" x2="260" y2="437.752"/>
				
					<line style="fill:none;stroke:#EEEEEE;stroke-width:0.5;stroke-miterlimit:10;" x1="22.462" y1="409.634" x2="260" y2="409.634"/>
				
					<line style="fill:none;stroke:#EEEEEE;stroke-width:0.5;stroke-miterlimit:10;" x1="22.462" y1="381.515" x2="260" y2="381.515"/>
				
					<line style="fill:none;stroke:#EEEEEE;stroke-width:0.5;stroke-miterlimit:10;" x1="22.462" y1="353.396" x2="260" y2="353.396"/>
			</g>
		</g>
	</g>
	<g>
		<g>
			<g>
				<g>
					<polyline style="fill-rule:evenodd;clip-rule:evenodd;fill:none;stroke:#024E87;stroke-width:2;" points="236.471,399.439 
						188.828,391.003 141.185,451.177 93.542,411.811 45.899,426.433 					"/>
				</g>
			</g>
		</g>
	</g>
	<path style="fill:none;stroke:#EEEEEE;stroke-width:0.5;stroke-miterlimit:10;" d="M260,522.109"/>
	<path style="fill:none;stroke:#EEEEEE;stroke-width:0.5;stroke-miterlimit:10;" d="M0,522.109"/>
	<line style="fill:none;stroke:#888888;stroke-miterlimit:10;" x1="67.243" y1="467.121" x2="67.243" y2="474.846"/>
	<path style="fill:none;stroke:#EEEEEE;stroke-width:0.5;stroke-miterlimit:10;" d="M0,294.512"/>
	<g>
		<line style="fill:none;stroke:#000000;stroke-miterlimit:10;" x1="-2.481" y1="268.441" x2="260" y2="268.441"/>
		<g>
			<g>
				<line style="fill:none;stroke:#000000;stroke-miterlimit:10;" x1="48.671" y1="272.191" x2="48.671" y2="268.878"/>
				<line style="fill:none;stroke:#000000;stroke-miterlimit:10;" x1="95.633" y1="272.191" x2="95.633" y2="268.878"/>
				<line style="fill:none;stroke:#000000;stroke-miterlimit:10;" x1="142.595" y1="272.191" x2="142.595" y2="268.878"/>
				<line style="fill:none;stroke:#000000;stroke-miterlimit:10;" x1="189.557" y1="272.191" x2="189.557" y2="268.878"/>
				<line style="fill:none;stroke:#000000;stroke-miterlimit:10;" x1="236.519" y1="272.191" x2="236.519" y2="268.878"/>
			</g>
		</g>
	</g>
	<g>
		<g>
			<g>
				<text transform="matrix(1 0 0 1 7.0601 225.9236)" style="display:none; font-family:'ArialMT'; font-size:13px;">50</text>
				<text transform="matrix(1 0 0 1 -0.1694 178.9031)" style="display:none; font-family:'ArialMT'; font-size:13px;">100</text>
				<text transform="matrix(1 0 0 1 -0.1694 131.8826)" style="display:none; font-family:'ArialMT'; font-size:13px;">150</text>
			</g>
		</g>
		<path style="fill:none;stroke:#000000;stroke-miterlimit:10;" d="M0.019,268.441"/>
		<g>
			<g>
				<line style="fill:none;stroke:#EEEEEE;stroke-width:0.5;stroke-miterlimit:10;" x1="25.19" y1="221.42" x2="260" y2="221.42"/>
				<line style="fill:none;stroke:#EEEEEE;stroke-width:0.5;stroke-miterlimit:10;" x1="25.19" y1="174.4" x2="260" y2="174.4"/>
				
					<line style="fill:none;stroke:#EEEEEE;stroke-width:0.5;stroke-miterlimit:10;" x1="25.19" y1="127.379" x2="260" y2="127.379"/>
			</g>
		</g>
	</g>
	<g>
		<g>
			<g>
				<polyline style="fill:none;stroke:#024E87;stroke-width:2;" points="236.519,163.646 189.397,142.957 142.275,200.322 
					95.153,173.991 48.031,205.965 				"/>
			</g>
		</g>
	</g>
</g>
<style type="text/css"><![CDATA[
rect,circle,path { vector-effect: non-scaling-stroke; }
]]></style>
</svg>

