<?xml version="1.0" encoding="utf-8"?>
<!-- Generator: Adobe Illustrator 22.0.1, SVG Export Plug-In . SVG Version: 6.00 Build 0)  -->
<svg version="1.1" id="Layer_1" xmlns="http://www.w3.org/2000/svg" xmlns:xlink="http://www.w3.org/1999/xlink" x="0px" y="0px"
	 viewBox="0 0 450 497.303" style="enable-background:new 0 0 450 497.303;" xml:space="preserve">
<g>
	<rect x="-29.574" y="205.946" style="fill:#EFE7DC;" width="513.812" height="14.48"/>
	<rect x="22.825" y="420.419" style="fill:#EFE7DC;" width="427.175" height="2.75"/>
	<g>
		<g>
			<g>
				<line style="fill:none;stroke:#000000;stroke-miterlimit:10;" x1="65.543" y1="482.406" x2="65.543" y2="478.188"/>
				<line style="fill:none;stroke:#000000;stroke-miterlimit:10;" x1="150.978" y1="482.406" x2="150.978" y2="478.188"/>
				<line style="fill:none;stroke:#000000;stroke-miterlimit:10;" x1="236.413" y1="482.406" x2="236.413" y2="478.188"/>
				<line style="fill:none;stroke:#000000;stroke-miterlimit:10;" x1="321.848" y1="482.406" x2="321.848" y2="478.188"/>
				<line style="fill:none;stroke:#000000;stroke-miterlimit:10;" x1="407.283" y1="482.406" x2="407.283" y2="478.188"/>
			</g>
		</g>
	</g>
	<g>
		<g>
			<g style="display:none;">
				<text transform="matrix(1 0 0 1 -0.7241 455.3673)" style="display:inline; font-family:'ArialMT'; font-size:13px;">0.5</text>
			</g>
			<g style="display:none;">
				<text transform="matrix(1 0 0 1 -0.7241 427.2487)" style="display:inline; font-family:'ArialMT'; font-size:13px;">1.0</text>
			</g>
			<g style="display:none;">
				<text transform="matrix(1 0 0 1 -0.7241 399.13)" style="display:inline; font-family:'ArialMT'; font-size:13px;">1.5</text>
			</g>
			<g style="display:none;">
				<text transform="matrix(1 0 0 1 -0.7241 371.0114)" style="display:inline; font-family:'ArialMT'; font-size:13px;">2.0</text>
			</g>
			<g style="display:none;">
				<text transform="matrix(1 0 0 1 -0.7241 342.8927)" style="display:inline; font-family:'ArialMT'; font-size:13px;">2.5</text>
			</g>
			<g style="display:none;">
				<text transform="matrix(1 0 0 1 -0.7241 314.774)" style="display:inline; font-family:'ArialMT'; font-size:13px;">3.0</text>
			</g>
		</g>
		<path style="fill:#FFFFFF;stroke:#231F20;" d="M-137.336,309.444"/>
		<g>
			<g>
				<path style="fill:none;stroke:#EEEEEE;stroke-width:0.5;stroke-miterlimit:10;" d="M461.975,478.156"/>
				<line style="fill:#FFFFFF;stroke:#231F20;" x1="-10.539" y1="478.156" x2="452.5" y2="478.156"/>
				
					<line style="fill:none;stroke:#EEEEEE;stroke-width:0.5;stroke-miterlimit:10;" x1="22.825" y1="450.037" x2="450" y2="450.037"/>
				
					<line style="fill:none;stroke:#EEEEEE;stroke-width:0.5;stroke-miterlimit:10;" x1="22.825" y1="421.919" x2="450" y2="421.919"/>
				<line style="fill:none;stroke:#EEEEEE;stroke-width:0.5;stroke-miterlimit:10;" x1="22.825" y1="393.8" x2="450" y2="393.8"/>
				
					<line style="fill:none;stroke:#EEEEEE;stroke-width:0.5;stroke-miterlimit:10;" x1="22.825" y1="365.681" x2="450" y2="365.681"/>
				
					<line style="fill:none;stroke:#EEEEEE;stroke-width:0.5;stroke-miterlimit:10;" x1="22.825" y1="337.563" x2="450" y2="337.563"/>
				
					<line style="fill:none;stroke:#EEEEEE;stroke-width:0.5;stroke-miterlimit:10;" x1="22.825" y1="309.444" x2="450" y2="309.444"/>
			</g>
		</g>
	</g>
	<g>
		<g>
			<g>
				<g>
					<polyline style="fill-rule:evenodd;clip-rule:evenodd;fill:none;stroke:#024E87;stroke-width:2;" points="65.06,355.487 
						150.738,347.051 236.416,407.225 322.095,367.859 407.773,382.481 					"/>
				</g>
			</g>
		</g>
	</g>
	<path style="fill:none;stroke:#EEEEEE;stroke-width:0.5;stroke-miterlimit:10;" d="M444.605,475.448"/>
	<line style="fill:none;stroke:#888888;stroke-miterlimit:10;" x1="103.358" y1="423.169" x2="103.358" y2="430.894"/>
	<g>
		<line style="fill:none;stroke:#000000;stroke-miterlimit:10;" x1="-13.039" y1="224.488" x2="450" y2="224.488"/>
		<g>
			<g>
				<line style="fill:none;stroke:#000000;stroke-miterlimit:10;" x1="69.958" y1="228.238" x2="69.958" y2="224.926"/>
				<line style="fill:none;stroke:#000000;stroke-miterlimit:10;" x1="154.411" y1="228.238" x2="154.411" y2="224.926"/>
				<line style="fill:none;stroke:#000000;stroke-miterlimit:10;" x1="238.865" y1="228.238" x2="238.865" y2="224.926"/>
				<line style="fill:none;stroke:#000000;stroke-miterlimit:10;" x1="323.319" y1="228.238" x2="323.319" y2="224.926"/>
				<line style="fill:none;stroke:#000000;stroke-miterlimit:10;" x1="407.773" y1="228.238" x2="407.773" y2="224.926"/>
			</g>
		</g>
	</g>
	<g>
		<g>
			<g>
				<text transform="matrix(1 0 0 1 6.6724 181.9713)" style="display:none; font-family:'ArialMT'; font-size:13px;">50</text>
				<text transform="matrix(1 0 0 1 -0.558 134.9508)" style="display:none; font-family:'ArialMT'; font-size:13px;">100</text>
				<text transform="matrix(1 0 0 1 -0.558 87.9303)" style="display:none; font-family:'ArialMT'; font-size:13px;">150</text>
			</g>
		</g>
		<path style="fill:none;stroke:#000000;stroke-miterlimit:10;" d="M-17.535,224.488"/>
		<g>
			<g>
				
					<line style="fill:none;stroke:#EEEEEE;stroke-width:0.5;stroke-miterlimit:10;" x1="27.731" y1="177.468" x2="450" y2="177.468"/>
				
					<line style="fill:none;stroke:#EEEEEE;stroke-width:0.5;stroke-miterlimit:10;" x1="27.731" y1="130.447" x2="450" y2="130.447"/>
				<line style="fill:none;stroke:#EEEEEE;stroke-width:0.5;stroke-miterlimit:10;" x1="27.731" y1="83.427" x2="450" y2="83.427"/>
			</g>
		</g>
	</g>
	<g>
		<g>
			<g>
				<polyline style="fill:none;stroke:#024E87;stroke-width:2;" points="64.974,119.694 149.716,99.005 234.457,156.37 
					319.199,130.038 403.94,162.012 				"/>
			</g>
		</g>
	</g>
</g>
<style type="text/css"><![CDATA[
rect,circle,path { vector-effect: non-scaling-stroke; }
]]></style>
</svg>

