<?xml version="1.0" encoding="utf-8"?>
<!-- Generator: Adobe Illustrator 22.0.1, SVG Export Plug-In . SVG Version: 6.00 Build 0)  -->
<svg version="1.1" id="Layer_1" xmlns="http://www.w3.org/2000/svg" xmlns:xlink="http://www.w3.org/1999/xlink" x="0px" y="0px"
	 viewBox="0 0 260 506.551" style="enable-background:new 0 0 260 506.551;" xml:space="preserve">
<g>
	<rect x="-6.676" y="220.191" style="fill:#EFE7DC;" width="285.714" height="13.688"/>
	<rect x="22.462" y="429.371" style="fill:#EFE7DC;" width="237.538" height="2.75"/>
	<g>
		<g>
			<g>
				<line style="fill:none;stroke:#000000;stroke-miterlimit:10;" x1="46.216" y1="491.359" x2="46.216" y2="487.141"/>
				<line style="fill:none;stroke:#000000;stroke-miterlimit:10;" x1="93.723" y1="491.359" x2="93.723" y2="487.141"/>
				<line style="fill:none;stroke:#000000;stroke-miterlimit:10;" x1="141.231" y1="491.359" x2="141.231" y2="487.141"/>
				<line style="fill:none;stroke:#000000;stroke-miterlimit:10;" x1="188.739" y1="491.359" x2="188.739" y2="487.141"/>
				<line style="fill:none;stroke:#000000;stroke-miterlimit:10;" x1="236.246" y1="491.359" x2="236.246" y2="487.141"/>
			</g>
		</g>
	</g>
	<g>
		<g>
			<g style="display:none;">
				<text transform="matrix(1 0 0 1 1.3443 464.3198)" style="display:inline; font-family:'ArialMT'; font-size:13px;">0.5</text>
			</g>
			<g style="display:none;">
				<text transform="matrix(1 0 0 1 1.3443 436.2012)" style="display:inline; font-family:'ArialMT'; font-size:13px;">1.0</text>
			</g>
			<g style="display:none;">
				<text transform="matrix(1 0 0 1 1.3443 408.0825)" style="display:inline; font-family:'ArialMT'; font-size:13px;">1.5</text>
			</g>
			<g style="display:none;">
				<text transform="matrix(1 0 0 1 1.3443 379.9639)" style="display:inline; font-family:'ArialMT'; font-size:13px;">2.0</text>
			</g>
			<g style="display:none;">
				<text transform="matrix(1 0 0 1 1.3443 351.8452)" style="display:inline; font-family:'ArialMT'; font-size:13px;">2.5</text>
			</g>
			<g style="display:none;">
				<text transform="matrix(1 0 0 1 1.3443 323.7266)" style="display:inline; font-family:'ArialMT'; font-size:13px;">3.0</text>
			</g>
		</g>
		<path style="fill:#FFFFFF;stroke:#231F20;" d="M-66.599,318.396"/>
		<g>
			<g>
				<path style="fill:none;stroke:#EEEEEE;stroke-width:0.5;stroke-miterlimit:10;" d="M266.659,487.109"/>
				<line style="fill:#FFFFFF;stroke:#231F20;" x1="2.519" y1="487.109" x2="260" y2="487.109"/>
				<line style="fill:none;stroke:#EEEEEE;stroke-width:0.5;stroke-miterlimit:10;" x1="22.462" y1="458.99" x2="260" y2="458.99"/>
				
					<line style="fill:none;stroke:#EEEEEE;stroke-width:0.5;stroke-miterlimit:10;" x1="22.462" y1="430.871" x2="260" y2="430.871"/>
				
					<line style="fill:none;stroke:#EEEEEE;stroke-width:0.5;stroke-miterlimit:10;" x1="22.462" y1="402.752" x2="260" y2="402.752"/>
				
					<line style="fill:none;stroke:#EEEEEE;stroke-width:0.5;stroke-miterlimit:10;" x1="22.462" y1="374.634" x2="260" y2="374.634"/>
				
					<line style="fill:none;stroke:#EEEEEE;stroke-width:0.5;stroke-miterlimit:10;" x1="22.462" y1="346.515" x2="260" y2="346.515"/>
				
					<line style="fill:none;stroke:#EEEEEE;stroke-width:0.5;stroke-miterlimit:10;" x1="22.462" y1="318.396" x2="260" y2="318.396"/>
			</g>
		</g>
	</g>
	<g>
		<g>
			<g>
				<polyline style="fill:none;stroke:#024E87;stroke-width:2;" points="236.246,388.131 188.739,359.45 141.231,418.499 
					93.723,335.267 46.216,358.887 				"/>
			</g>
		</g>
	</g>
	<path style="fill:none;stroke:#EEEEEE;stroke-width:0.5;stroke-miterlimit:10;" d="M260,487.109"/>
	<path style="fill:none;stroke:#EEEEEE;stroke-width:0.5;stroke-miterlimit:10;" d="M0,487.109"/>
	<line style="fill:#FFFFFF;stroke:#231F20;stroke-width:0.5;" x1="67.243" y1="432.121" x2="67.243" y2="439.846"/>
	<path style="fill:none;stroke:#EEEEEE;stroke-width:0.5;stroke-miterlimit:10;" d="M0,259.512"/>
	<g>
		<line style="fill:none;stroke:#000000;stroke-miterlimit:10;" x1="2.519" y1="233.441" x2="260" y2="233.441"/>
		<g>
			<g>
				<line style="fill:none;stroke:#000000;stroke-miterlimit:10;" x1="48.671" y1="237.191" x2="48.671" y2="233.878"/>
				<line style="fill:none;stroke:#000000;stroke-miterlimit:10;" x1="95.633" y1="237.191" x2="95.633" y2="233.878"/>
				<line style="fill:none;stroke:#000000;stroke-miterlimit:10;" x1="142.595" y1="237.191" x2="142.595" y2="233.878"/>
				<line style="fill:none;stroke:#000000;stroke-miterlimit:10;" x1="189.557" y1="237.191" x2="189.557" y2="233.878"/>
				<line style="fill:none;stroke:#000000;stroke-miterlimit:10;" x1="236.519" y1="237.191" x2="236.519" y2="233.878"/>
			</g>
		</g>
	</g>
	<g>
		<g>
			<text transform="matrix(1 0 0 1 7.0601 206.1296)" style="display:none; font-family:'ArialMT'; font-size:13px;">50</text>
			<text transform="matrix(1 0 0 1 -0.1694 173.0046)" style="display:none; font-family:'ArialMT'; font-size:13px;">100</text>
			<text transform="matrix(1 0 0 1 -0.1694 139.8796)" style="display:none; font-family:'ArialMT'; font-size:13px;">150</text>
			<text transform="matrix(1 0 0 1 -0.1694 106.7546)" style="display:none; font-family:'ArialMT'; font-size:13px;">200</text>
		</g>
		<path style="fill:none;stroke:#000000;stroke-miterlimit:10;" d="M25.19,100.941"/>
		<path style="fill:none;stroke:#000000;stroke-miterlimit:10;" d="M2.519,233.441"/>
		<g>
			<g>
				
					<line style="fill:none;stroke:#EEEEEE;stroke-width:0.5;stroke-miterlimit:10;" x1="25.19" y1="200.316" x2="260" y2="200.316"/>
				
					<line style="fill:none;stroke:#EEEEEE;stroke-width:0.5;stroke-miterlimit:10;" x1="25.19" y1="167.191" x2="260" y2="167.191"/>
				
					<line style="fill:none;stroke:#EEEEEE;stroke-width:0.5;stroke-miterlimit:10;" x1="25.19" y1="134.066" x2="260" y2="134.066"/>
				
					<line style="fill:none;stroke:#EEEEEE;stroke-width:0.5;stroke-miterlimit:10;" x1="25.19" y1="100.941" x2="260" y2="100.941"/>
			</g>
		</g>
	</g>
	<g>
		<g>
			<g>
				<line style="fill:none;stroke:#024E87;stroke-width:2;" x1="95.085" y1="123.466" x2="48.123" y2="153.941"/>
				<line style="fill:none;stroke:#024E87;stroke-width:2;" x1="142.047" y1="181.766" x2="95.085" y2="123.466"/>
				<line style="fill:none;stroke:#024E87;stroke-width:2;" x1="189.009" y1="154.603" x2="142.047" y2="181.766"/>
				<line style="fill:none;stroke:#024E87;stroke-width:2;" x1="235.971" y1="189.716" x2="189.009" y2="154.603"/>
			</g>
		</g>
	</g>
	<line style="fill:#FFFFFF;stroke:#231F20;" x1="46.779" y1="220.191" x2="46.779" y2="197.623"/>
</g>
<style type="text/css"><![CDATA[
rect,circle,path { vector-effect: non-scaling-stroke; }
]]></style>
</svg>

