<?xml version="1.0" encoding="utf-8"?>
<!-- Generator: Adobe Illustrator 22.0.1, SVG Export Plug-In . SVG Version: 6.00 Build 0)  -->
<svg version="1.1" id="Layer_1" xmlns="http://www.w3.org/2000/svg" xmlns:xlink="http://www.w3.org/1999/xlink" x="0px" y="0px"
	 viewBox="0 0 450 482.706" style="enable-background:new 0 0 450 482.706;" xml:space="preserve">
<g>
	<rect x="-7.22" y="192.617" style="fill:#EFE7DC;" width="459.47" height="13.688"/>
	<rect x="24.712" y="404.951" style="fill:#EFE7DC;" width="427.538" height="2.75"/>
	<g>
		<g>
			<g>
				<line style="fill:none;stroke:#000000;stroke-miterlimit:10;" x1="67.466" y1="466.938" x2="67.466" y2="462.721"/>
				<line style="fill:none;stroke:#000000;stroke-miterlimit:10;" x1="152.973" y1="466.938" x2="152.973" y2="462.721"/>
				<line style="fill:none;stroke:#000000;stroke-miterlimit:10;" x1="238.481" y1="466.938" x2="238.481" y2="462.721"/>
				<line style="fill:none;stroke:#000000;stroke-miterlimit:10;" x1="323.989" y1="466.938" x2="323.989" y2="462.721"/>
				<line style="fill:none;stroke:#000000;stroke-miterlimit:10;" x1="409.496" y1="466.938" x2="409.496" y2="462.721"/>
			</g>
		</g>
	</g>
	<g>
		<g>
			<g style="display:none;">
				<text transform="matrix(1 0 0 1 1.1568 439.8994)" style="display:inline; font-family:'ArialMT'; font-size:13px;">0.5</text>
			</g>
			<g style="display:none;">
				<text transform="matrix(1 0 0 1 1.1568 411.7808)" style="display:inline; font-family:'ArialMT'; font-size:13px;">1.0</text>
			</g>
			<g style="display:none;">
				<text transform="matrix(1 0 0 1 1.1568 383.6621)" style="display:inline; font-family:'ArialMT'; font-size:13px;">1.5</text>
			</g>
			<g style="display:none;">
				<text transform="matrix(1 0 0 1 1.1568 355.5435)" style="display:inline; font-family:'ArialMT'; font-size:13px;">2.0</text>
			</g>
			<g style="display:none;">
				<text transform="matrix(1 0 0 1 1.1568 327.4248)" style="display:inline; font-family:'ArialMT'; font-size:13px;">2.5</text>
			</g>
			<g style="display:none;">
				<text transform="matrix(1 0 0 1 1.1568 299.3062)" style="display:inline; font-family:'ArialMT'; font-size:13px;">3.0</text>
			</g>
		</g>
		<path style="fill:#FFFFFF;stroke:#231F20;" d="M-135.585,293.976"/>
		<g>
			<g>
				<path style="fill:none;stroke:#EEEEEE;stroke-width:0.5;stroke-miterlimit:10;" d="M464.235,462.688"/>
				<line style="fill:#FFFFFF;stroke:#231F20;" x1="-11.183" y1="462.688" x2="452.25" y2="462.688"/>
				
					<line style="fill:none;stroke:#EEEEEE;stroke-width:0.5;stroke-miterlimit:10;" x1="24.712" y1="434.57" x2="452.25" y2="434.57"/>
				
					<line style="fill:none;stroke:#EEEEEE;stroke-width:0.5;stroke-miterlimit:10;" x1="24.712" y1="406.451" x2="452.25" y2="406.451"/>
				
					<line style="fill:none;stroke:#EEEEEE;stroke-width:0.5;stroke-miterlimit:10;" x1="24.712" y1="378.332" x2="452.25" y2="378.332"/>
				
					<line style="fill:none;stroke:#EEEEEE;stroke-width:0.5;stroke-miterlimit:10;" x1="24.712" y1="350.213" x2="452.25" y2="350.213"/>
				
					<line style="fill:none;stroke:#EEEEEE;stroke-width:0.5;stroke-miterlimit:10;" x1="24.712" y1="322.095" x2="452.25" y2="322.095"/>
				
					<line style="fill:none;stroke:#EEEEEE;stroke-width:0.5;stroke-miterlimit:10;" x1="24.712" y1="293.976" x2="452.25" y2="293.976"/>
			</g>
		</g>
	</g>
	<g>
		<g>
			<g>
				<polyline style="fill:none;stroke:#024E87;stroke-width:3;" points="409.496,363.71 323.989,335.029 238.481,394.079 
					152.973,310.847 67.466,334.467 				"/>
			</g>
		</g>
	</g>
	<line style="fill:#FFFFFF;stroke:#231F20;stroke-width:0.5;" x1="105.313" y1="407.701" x2="105.313" y2="415.426"/>
	<g>
		<g>
			<line style="fill:none;stroke:#000000;stroke-miterlimit:10;" x1="-13.433" y1="205.867" x2="450" y2="205.867"/>
			<g>
				<g>
					<line style="fill:none;stroke:#000000;stroke-miterlimit:10;" x1="69.634" y1="209.617" x2="69.634" y2="206.304"/>
					<line style="fill:none;stroke:#000000;stroke-miterlimit:10;" x1="154.16" y1="209.617" x2="154.16" y2="206.304"/>
					<line style="fill:none;stroke:#000000;stroke-miterlimit:10;" x1="238.686" y1="209.617" x2="238.686" y2="206.304"/>
					<line style="fill:none;stroke:#000000;stroke-miterlimit:10;" x1="323.211" y1="209.617" x2="323.211" y2="206.304"/>
					<line style="fill:none;stroke:#000000;stroke-miterlimit:10;" x1="407.737" y1="209.617" x2="407.737" y2="206.304"/>
				</g>
			</g>
		</g>
		<g>
			<g>
				<text transform="matrix(1 0 0 1 6.3062 178.5558)" style="display:none; font-family:'ArialMT'; font-size:13px;">50</text>
				<text transform="matrix(1 0 0 1 -0.9233 145.4308)" style="display:none; font-family:'ArialMT'; font-size:13px;">100</text>
				<text transform="matrix(1 0 0 1 -0.9233 112.3058)" style="display:none; font-family:'ArialMT'; font-size:13px;">150</text>
				<text transform="matrix(1 0 0 1 -0.9233 79.1808)" style="display:none; font-family:'ArialMT'; font-size:13px;">200</text>
			</g>
			<path style="fill:none;stroke:#000000;stroke-miterlimit:10;" d="M27.371,73.367"/>
			<path style="fill:none;stroke:#000000;stroke-miterlimit:10;" d="M-13.433,205.867"/>
			<g>
				<g>
					
						<line style="fill:none;stroke:#EEEEEE;stroke-width:0.5;stroke-miterlimit:10;" x1="27.371" y1="172.742" x2="450" y2="172.742"/>
					
						<line style="fill:none;stroke:#EEEEEE;stroke-width:0.5;stroke-miterlimit:10;" x1="27.371" y1="139.617" x2="450" y2="139.617"/>
					
						<line style="fill:none;stroke:#EEEEEE;stroke-width:0.5;stroke-miterlimit:10;" x1="27.371" y1="106.492" x2="450" y2="106.492"/>
					
						<line style="fill:none;stroke:#EEEEEE;stroke-width:0.5;stroke-miterlimit:10;" x1="27.371" y1="73.367" x2="450" y2="73.367"/>
				</g>
			</g>
		</g>
		<g>
			<g>
				<g>
					<line style="fill:none;stroke:#024E87;stroke-width:2;" x1="153.174" y1="95.892" x2="68.649" y2="126.367"/>
					<line style="fill:none;stroke:#024E87;stroke-width:2;" x1="237.7" y1="154.192" x2="153.174" y2="95.892"/>
					<line style="fill:none;stroke:#024E87;stroke-width:2;" x1="322.226" y1="127.029" x2="237.7" y2="154.192"/>
					<line style="fill:none;stroke:#024E87;stroke-width:3;" x1="406.751" y1="162.142" x2="322.226" y2="127.029"/>
				</g>
			</g>
		</g>
		<line style="fill:#FFFFFF;stroke:#231F20;" x1="66.23" y1="192.617" x2="66.23" y2="170.049"/>
	</g>
</g>
<style type="text/css"><![CDATA[
rect,circle,path { vector-effect: non-scaling-stroke; }
]]></style>
</svg>

